<svg xmlns="http://www.w3.org/2000/svg"
                                                                        viewBox="0 0 1500 778" fill="none">
                                                                        <mask id="mask0_5119_799"
                                                                            style="mask-type:alpha"
                                                                            maskUnits="userSpaceOnUse" x="0" y="0"
                                                                            width="1500" height="778">
                                                                            <rect width="1500" height="778"
                                                                                fill="#9F2626" />
                                                                        </mask>
                                                                        <g mask="url(#mask0_5119_799)">
                                                                            <path fill-rule="evenodd"
                                                                                clip-rule="evenodd"
                                                                                d="M958.937 -256.471C836.506 -244.925 710.48 -250.863 608.568 -216.834C484.58 -175.434 315.825 -112.856 328.834 -41.453C363.795 113.073 549.852 39.8434 656.25 90.0695C762.706 140.323 835.602 317.776 958.382 393.641C1038.54 443.169 1294.43 619.16 1677.34 503.14C1824.09 458.676 1703.88 60.3615 1699.54 -30.4511C1695.35 -118.035 1637.27 -249.726 1484.35 -299.423C1332.18 -348.879 1140.13 -273.558 958.937 -256.471Z"
                                                                                fill="#FFC89B"
                                                                                class="listivo-fill-color-4" />
                                                                            <path fill-rule="evenodd"
                                                                                clip-rule="evenodd"
                                                                                d="M-251.745 401.205C-209.952 414.338 -24.6633 401.821 16.9291 364.442C53.1309 331.907 2.48868 218.643 25.2522 170.439C54.8676 107.726 131.044 12.3932 117.04 -47.0128C102.87 -107.119 80.4456 -129.402 30.6837 -138.339C-13.5573 -146.285 -60.282 -128.45 -104.675 -95.8047C-149.142 -63.1046 -194.706 16.4328 -210.996 76.706C-226.18 132.882 -199.903 228.21 -186.197 276.809C-171.821 327.785 -293.432 388.106 -251.745 401.205Z"
                                                                                fill="#FFC89B"
                                                                                class="listivo-fill-color-4" />
                                                                            <path fill-rule="evenodd"
                                                                                clip-rule="evenodd"
                                                                                d="M-260.669 389.391C-218.876 402.524 -33.5874 390.006 8.00497 352.627C44.2068 320.093 7.99903 168.565 30.7625 120.361C60.3779 57.6475 114.824 6.5116 100.82 -52.8943C86.6506 -113.001 57.511 -148.577 7.74913 -157.514C-36.4919 -165.459 -69.2061 -140.264 -113.599 -107.619C-158.067 -74.919 -215.363 -11.7836 -219.921 64.8916C-224.912 148.861 -208.827 216.396 -195.121 264.995C-180.745 315.971 -302.357 376.291 -260.669 389.391Z"
                                                                                fill="#E4032E"
                                                                                class="listivo-fill-primary-1" />
                                                                            <path fill-rule="evenodd"
                                                                                clip-rule="evenodd"
                                                                                d="M938.104 -290.471C815.673 -278.925 689.647 -284.863 587.735 -250.834C463.747 -209.434 294.992 -146.856 308.001 -75.453C342.962 79.0734 529.019 5.84336 635.417 56.0695C741.873 106.323 814.769 283.776 937.549 359.641C1017.7 409.169 1273.6 585.16 1656.51 469.14C1803.26 424.676 1683.05 26.3615 1678.71 -64.4511C1674.52 -152.035 1616.43 -283.726 1463.52 -333.423C1311.35 -382.879 1119.3 -307.558 938.104 -290.471Z"
                                                                                fill="#FD542A"
                                                                                class="listivo-fill-primary-2" />
                                                                            <path opacity="0.6"
                                                                                d="M1418.39 164.387L1417.78 188.664L1396.19 176.021L1418.39 164.387Z"
                                                                                stroke="#FDFDFE" />
                                                                            <g opacity="0.6">
                                                                                <rect x="770" y="80" width="0.625833"
                                                                                    height="15" fill="#FDFDFE" />
                                                                                <rect x="762.5" y="87.8005"
                                                                                    width="0.60002" height="15.625"
                                                                                    transform="rotate(-90 762.5 87.8005)"
                                                                                    fill="#FDFDFE" />
                                                                            </g>
                                                                            <g opacity="0.6">
                                                                                <rect x="29.375" y="241"
                                                                                    width="0.625833" height="15"
                                                                                    fill="#FDFDFE" />
                                                                                <rect x="21.875" y="248.8"
                                                                                    width="0.60002" height="15.625"
                                                                                    transform="rotate(-90 21.875 248.8)"
                                                                                    fill="#FDFDFE" />
                                                                            </g>
                                                                        </g>
                                                                    </svg>