<svg xmlns="http://www.w3.org/2000/svg" viewBox="0 0 390 942" fill="none">
    <mask id="mask0_5131_816" maskUnits="userSpaceOnUse" x="0" y="0" width="390" height="942" style="mask-type: alpha;">
        <rect width="390" height="942" fill="#9F2626"></rect>
    </mask>
    <g mask="url(#mask0_5131_816)">
        <path fill-rule="evenodd" clip-rule="evenodd" d="M749.811 -263.471C633.176 -251.925 513.114 -257.863 416.025 -223.834C297.906 -182.434 137.137 -119.856 149.53 -48.453C182.837 106.073 360.088 32.8434 461.45 83.0695C562.868 133.323 632.314 310.776 749.283 386.641C825.645 436.169 1069.43 612.16 1434.22 496.14C1574.02 451.676 1459.5 53.3615 1455.36 -37.4511C1451.37 -125.035 1396.04 -256.726 1250.36 -306.423C1105.39 -355.879 922.432 -280.558 749.811 -263.471Z" fill="#FFC89B" class="listivo-fill-color-4"></path>
        <path fill-rule="evenodd" clip-rule="evenodd" d="M55.8472 769.597C128.861 726.355 206.374 686.256 263.925 644.215C333.943 593.067 428.419 521.908 411.066 508.519C369.366 481.787 256.712 528.478 185.299 551.136C113.846 573.806 -123.349 702.248 -208.123 723.961C-286.756 744.101 -393.536 743.561 -481.892 818.467C-559.757 884.481 -491.661 949.06 -529.767 1008.29C-544.576 1031.3 -358.03 991.671 -258.367 953.539C-159.186 915.592 -52.2133 833.595 55.8472 769.597Z" fill="#FFC89B" class="listivo-fill-color-4"></path>
        <path fill-rule="evenodd" clip-rule="evenodd" d="M-290.015 785.158C-251.604 802.009 -74.6985 806.288 -31.7593 772.833C5.61473 743.714 -31.8377 626.377 -5.74565 580.444C28.2003 520.685 109.353 432.658 101.619 372.251C93.7944 311.131 74.6073 286.92 28.2457 273.527C-12.9723 261.619 -58.9538 275.153 -104.107 303.643C-149.336 332.18 -199.979 407.247 -221.059 465.781C-240.707 520.336 -224.688 617.615 -216.228 667.237C-207.354 719.285 -328.33 768.35 -290.015 785.158Z" fill="#FFC89B" class="listivo-fill-color-4"></path>
        <path fill-rule="evenodd" clip-rule="evenodd" d="M-297.375 772.59C-258.964 789.44 -82.0588 793.72 -39.1197 760.265C-1.74558 731.146 -21.9339 577.019 4.15817 531.086C38.1041 471.327 94.5195 425.337 86.7857 364.93C78.9607 303.81 54.6462 265.759 8.28468 252.366C-32.9333 240.458 -66.3141 262.585 -111.467 291.074C-156.696 319.612 -216.936 377.29 -228.42 453.213C-240.996 536.358 -232.048 605.047 -223.588 654.669C-214.714 706.717 -335.69 755.782 -297.375 772.59Z" fill="#E4032E" class="listivo-fill-primary-1"></path>
        <path fill-rule="evenodd" clip-rule="evenodd" d="M744.849 -279.471C628.214 -267.925 508.152 -273.863 411.063 -239.834C292.944 -198.434 132.175 -135.856 144.569 -64.453C177.875 90.0734 355.126 16.8433 456.488 67.0695C557.906 117.323 627.352 294.776 744.321 370.641C820.683 420.169 1064.47 596.16 1429.25 480.14C1569.06 435.676 1454.54 37.3615 1450.4 -53.4511C1446.41 -141.035 1391.07 -272.726 1245.4 -322.423C1100.43 -371.879 917.47 -296.558 744.849 -279.471Z" fill="#FA823E" class="listivo-fill-primary-2"></path>
        <path fill-rule="evenodd" clip-rule="evenodd" d="M-306.067 875.529C-422.702 887.075 -542.764 881.137 -639.853 915.166C-757.972 956.566 -918.741 1019.14 -906.348 1090.55C-873.041 1245.07 -695.79 1171.84 -594.428 1222.07C-493.01 1272.32 -423.564 1449.78 -306.595 1525.64C-230.233 1575.17 13.5501 1751.16 378.338 1635.14C518.141 1590.68 403.621 1192.36 399.485 1101.55C395.495 1013.97 340.158 882.274 194.482 832.577C49.5121 783.121 -133.446 858.442 -306.067 875.529Z" fill="#FFC89B" class="listivo-fill-color-4"></path>
        <path fill-rule="evenodd" clip-rule="evenodd" d="M-311.029 891.529C-427.664 903.075 -547.726 897.137 -644.815 931.166C-762.934 972.566 -923.703 1035.14 -911.309 1106.55C-878.003 1261.07 -700.752 1187.84 -599.39 1238.07C-497.972 1288.32 -428.526 1465.78 -311.557 1541.64C-235.195 1591.17 8.58825 1767.16 373.376 1651.14C513.179 1606.68 398.66 1208.36 394.523 1117.55C390.533 1029.97 335.196 898.274 189.52 848.577C44.5502 799.121 -138.407 874.442 -311.029 891.529Z" fill="#FD542A" class="listivo-fill-primary-2"></path>
        <g opacity="0.6">
            <rect x="27.9849" y="241" width="0.59542" height="15" fill="#FDFDFE"></rect>
            <rect x="20.8398" y="248.8" width="0.60002" height="14.8855" transform="rotate(-90 20.8398 248.8)" fill="#FDFDFE"></rect>
        </g>
    </g>
</svg>