<svg xmlns="http://www.w3.org/2000/svg" width="1860" height="347" viewBox="0 0 1860 347" fill="none">
    <mask id="mask0_7141_13994" style="mask-type:alpha" maskUnits="userSpaceOnUse" x="0" y="0" width="1860" height="347">
        <rect width="1860" height="346.167" fill="#9F2626"></rect>
    </mask>
    <g mask="url(#mask0_7141_13994)">
        <path class="listivo-fill-color-4" fill-rule="evenodd" clip-rule="evenodd" d="M-386.384 97.9602C-357.021 143.907 -168.971 276.902 -98.4806 272.199C-37.126 268.106 6.92744 115.115 68.2037 84.8052C147.924 45.3722 299.01 9.89605 334.166 -60.4852C369.737 -131.696 366.445 -171.581 326.002 -219.593C290.047 -262.278 230.618 -281.142 161.313 -283.37C91.8907 -285.603 -16.8969 -241.876 -81.8344 -194.418C-142.358 -150.186 -195.121 -34.259 -221.724 25.085C-249.627 87.3312 -415.674 52.1281 -386.384 97.9602Z" fill="#FFC89B"></path>
        <path class="listivo-fill-primary-1" fill-rule="evenodd" clip-rule="evenodd" d="M-385.284 79.1433C-355.921 125.09 -167.87 258.085 -97.38 253.382C-36.0254 249.289 53.1807 69.3835 114.457 39.0739C194.178 -0.35916 288.257 -8.7194 323.413 -79.1006C358.983 -150.312 360.121 -208.757 319.679 -256.769C283.723 -299.454 231.719 -299.959 162.413 -302.187C92.9913 -304.42 -13.6386 -286.303 -80.7338 -213.235C-154.211 -133.217 -194.021 -53.0759 -220.623 6.26807C-248.526 68.5142 -414.573 33.3112 -385.284 79.1433Z" fill="#E4032E"></path>
        <path class="listivo-fill-color-4" fill-rule="evenodd" clip-rule="evenodd" d="M1516.99 -410.034C1384.41 -334.587 1238.56 -277.949 1141.04 -186.34C1022.4 -74.8869 864.203 84.1579 916.497 161.822C1037.38 326.461 1209.57 146.114 1356.48 151.634C1503.48 157.158 1679.38 329.687 1858.34 357.18C1975.17 375.13 2357.55 453.52 2730.17 123.283C2872.98 -3.2783 2527.31 -412.464 2474.62 -517.402C2423.81 -618.61 2288.75 -744.632 2089.43 -726.039C1891.08 -707.536 1713.2 -521.696 1516.99 -410.034Z" fill="#FFC89B"></path>
        <path class="listivo-fill-primary-2" fill-rule="evenodd" clip-rule="evenodd" d="M1475.51 -439.622C1342.93 -364.175 1197.08 -307.537 1099.56 -215.927C980.922 -104.475 822.723 54.57 875.017 132.234C995.898 296.873 1168.09 116.526 1315 122.046C1462 127.57 1637.91 300.099 1816.86 327.593C1933.69 345.542 2316.07 423.933 2688.69 93.6956C2831.5 -32.8662 2485.83 -442.052 2433.14 -546.99C2382.33 -648.198 2247.27 -774.22 2047.95 -755.627C1849.6 -737.123 1671.72 -551.284 1475.51 -439.622Z" fill="#FD542A"></path>
        <path class="listivo-stroke-color-5" opacity="0.6" d="M1758.94 73.8918L1758.18 105.709L1731 89.1393L1758.94 73.8918Z" stroke="#FDFDFE"></path>
    </g>
</svg>