<svg xmlns="http://www.w3.org/2000/svg" width="1860" height="1160" viewBox="0 0 1860 1160" fill="none">
    <mask id="mask0_7141_14099" style="mask-type:alpha" maskUnits="userSpaceOnUse" x="0" y="0" width="1860" height="1160">
    <rect width="1860" height="1159.92" fill="#9F2626"></rect>
    </mask>
    <g mask="url(#mask0_7141_14099)">
    <path fill-rule="evenodd" clip-rule="evenodd" d="M1871.82 644.171C1982.04 642.942 2095.33 648.146 2187.33 638.258C2299.24 626.23 2451.63 607.596 2440.63 581.362C2410.7 524.423 2253.48 503.873 2158.28 483.067C2063.03 462.25 1712.67 452.755 1602.98 422.246C1501.24 393.947 1380.99 324.26 1233.1 351.054C1102.78 374.667 1138.23 491.104 1057.16 532.833C1025.66 549.05 1261.8 625.315 1398.84 647.054C1535.22 668.687 1708.68 645.991 1871.82 644.171Z" fill="#FFC89B"></path>
    <path fill-rule="evenodd" clip-rule="evenodd" d="M75.7927 959.251C139.242 869.109 209.701 780.243 255.466 699.832C311.143 602.004 385.124 467.48 357.408 461.069C293.713 452.064 185.124 567.589 112.581 632.66C39.9992 697.766 -172.549 976.448 -261.431 1047.6C-343.875 1113.59 -470.719 1170.4 -535.446 1306.04C-592.487 1425.58 -477.3 1464.89 -490.842 1555.06C-496.104 1590.1 -296.17 1443.12 -198.407 1344.65C-101.119 1246.65 -18.1121 1092.66 75.7927 959.251Z" fill="#FFC89B"></path>
    <path fill-rule="evenodd" clip-rule="evenodd" d="M-254.91 253.011C-233.39 303.113 -69.4054 464.852 0.914253 471.647C62.1202 477.561 130.409 333.744 195.791 313.776C280.852 287.798 435.692 277.302 481.8 213.556C528.451 149.059 531.674 109.169 499.556 55.232C471.001 7.27954 415.42 -20.9755 347.394 -34.4177C279.253 -47.8826 164.813 -22.3831 93.037 13.9114C26.1398 47.7389 -44.7311 153.571 -80.6081 207.814C-118.24 264.709 -276.376 203.035 -254.91 253.011Z" fill="#FFC89B"></path>
    <path fill-rule="evenodd" clip-rule="evenodd" d="M-250.736 234.621C-229.215 284.723 -65.2312 446.462 5.08842 453.257C66.2943 459.171 183.504 296.121 248.885 276.153C333.947 250.175 428.136 257.188 474.244 193.442C520.896 128.945 531.5 71.4579 499.382 17.5215C470.827 -30.431 419.594 -39.3653 351.568 -52.8075C283.428 -66.2724 175.271 -65.6936 97.2112 -4.4784C11.726 62.5599 -40.5569 135.181 -76.434 189.424C-114.066 246.319 -272.202 184.645 -250.736 234.621Z" fill="#E4032E"></path>
    <path fill-rule="evenodd" clip-rule="evenodd" d="M1965.83 1077.37C1958.04 1023.4 1841.61 824.673 1775.46 799.876C1717.88 778.292 1614.63 899.481 1546.31 901.811C1457.42 904.843 1305.16 874.828 1244.09 924.436C1182.31 974.63 1168.86 1012.32 1185.89 1072.74C1201.03 1126.46 1247.39 1168.16 1309.6 1198.78C1371.92 1229.46 1489.05 1234.5 1567.79 1218.06C1641.17 1202.74 1737.06 1118.91 1785.77 1075.82C1836.87 1030.63 1973.61 1131.21 1965.83 1077.37Z" fill="#FFC89B"></path>
    <path fill-rule="evenodd" clip-rule="evenodd" d="M1957.07 1094.06C1949.28 1040.09 1832.84 841.361 1766.69 816.564C1709.11 794.98 1553.63 922.059 1485.31 924.389C1396.42 927.42 1307.27 896.223 1246.21 945.832C1184.43 996.025 1159.28 1048.8 1176.31 1109.22C1191.46 1162.93 1238.62 1184.85 1300.83 1215.47C1363.15 1246.14 1467.76 1273.63 1559.02 1234.75C1658.97 1192.18 1728.29 1135.6 1777.01 1092.51C1828.11 1047.32 1964.84 1147.89 1957.07 1094.06Z" fill="#E4032E"></path>
    <path fill-rule="evenodd" clip-rule="evenodd" d="M2051.23 -772.72C2029.22 -923.668 2029.56 -1080.13 1979.73 -1204.3C1919.11 -1355.37 1828.57 -1560.61 1737.2 -1540.18C1539.85 -1487.52 1645.14 -1261.5 1586.52 -1126.67C1527.87 -991.765 1303.14 -890.734 1212.39 -734.063C1153.15 -631.781 940.94 -304.17 1112.88 163.095C1178.78 342.172 1685.72 169.172 1802.64 158.297C1915.4 147.809 2081.94 67.8915 2137.17 -124.52C2192.14 -315.999 2083.8 -549.317 2051.23 -772.72Z" fill="#FFC89B"></path>
    <path fill-rule="evenodd" clip-rule="evenodd" d="M2093.89 -800.583C2071.88 -951.531 2072.22 -1107.99 2022.39 -1232.16C1961.77 -1383.23 1871.22 -1588.47 1779.85 -1568.04C1582.51 -1515.38 1687.8 -1289.36 1629.18 -1154.53C1570.52 -1019.63 1345.8 -918.597 1255.05 -761.926C1195.8 -659.645 983.598 -332.034 1155.54 135.232C1221.43 314.309 1728.38 141.308 1845.29 130.434C1958.05 119.946 2124.59 40.0283 2179.83 -152.383C2234.8 -343.862 2126.46 -577.18 2093.89 -800.583Z" fill="#FD542A"></path>
    <path fill-rule="evenodd" clip-rule="evenodd" d="M767.313 1385.65C745.303 1234.71 745.642 1078.25 695.816 954.073C635.196 803.002 544.65 597.762 453.279 618.198C255.932 670.854 361.227 896.879 302.604 1031.71C243.95 1166.61 19.2265 1267.64 -71.5245 1424.31C-130.771 1526.59 -342.976 1854.2 -171.035 2321.47C-105.14 2500.55 401.801 2327.55 518.719 2316.67C631.481 2306.18 798.021 2226.27 853.258 2033.85C908.228 1842.38 799.887 1609.06 767.313 1385.65Z" fill="#FFC89B"></path>
    <path fill-rule="evenodd" clip-rule="evenodd" d="M809.97 1357.79C787.961 1206.84 788.3 1050.38 738.473 926.21C677.854 775.14 587.308 569.9 495.936 590.335C298.59 642.991 403.884 869.016 345.262 1003.84C286.607 1138.75 61.8839 1239.78 -28.8671 1396.45C-88.1133 1498.73 -300.319 1826.34 -128.378 2293.61C-62.4824 2472.68 444.458 2299.68 561.377 2288.81C674.138 2278.32 840.678 2198.4 895.915 2005.99C950.885 1814.51 842.544 1581.19 809.97 1357.79Z" fill="#FD542A"></path>
    <path opacity="0.6" d="M1758.94 73.8918L1758.18 105.709L1731 89.1393L1758.94 73.8918Z" stroke="#FDFDFE"></path>
    </g>
    </svg>