<svg xmlns="http://www.w3.org/2000/svg" width="16" height="16" viewBox="0 0 16 16" fill="none"><path fill-rule="evenodd" clip-rule="evenodd" d="M0 8C0 3.58883 3.58883 0 8 0C12.4112 0 16 3.58883 16 8C16 12.4112 12.4112 16 8 16C3.58883 16 0 12.4112 0 8ZM14.7992 8C14.7992 4.23736 11.7619 1.2 7.99922 1.2C4.23657 1.2 1.19922 4.23736 1.19922 8C1.19922 11.7626 4.23657 14.8 7.99922 14.8C11.7619 14.8 14.7992 11.7626 14.7992 8ZM8.00039 2.4C4.91457 2.4 2.40039 4.91418 2.40039 8C2.40039 11.0858 4.91457 13.6 8.00039 13.6C8.69124 13.6 9.3557 13.4746 9.96836 13.2445C10.1715 13.1709 10.3194 12.9938 10.3556 12.7808C10.3918 12.5678 10.3106 12.3518 10.1432 12.2153C9.97576 12.0788 9.74784 12.0428 9.54648 12.1211C9.06635 12.3014 8.54634 12.4 8.00039 12.4C5.56301 12.4 3.60039 10.4374 3.60039 8C3.60039 5.56262 5.56301 3.6 8.00039 3.6C10.4378 3.6 12.4004 5.56262 12.4004 8V8.6C12.4004 9.15929 11.9597 9.6 11.4004 9.6C10.8411 9.6 10.4004 9.15929 10.4004 8.6V5.8C10.4028 5.49492 10.1759 5.23659 9.87308 5.19961C9.57025 5.16263 9.28786 5.35877 9.2168 5.65547C8.81185 5.36971 8.32747 5.2 7.80039 5.2C6.33967 5.2 5.20039 6.49099 5.20039 8C5.20039 9.50901 6.33967 10.8 7.80039 10.8C8.54069 10.8 9.1973 10.4673 9.66602 9.94375C10.0698 10.4624 10.6977 10.8 11.4004 10.8C12.6083 10.8 13.6004 9.80791 13.6004 8.6V8C13.6004 4.91418 11.0862 2.4 8.00039 2.4ZM9.20039 8C9.20039 7.08261 8.54527 6.4 7.80039 6.4C7.05552 6.4 6.40039 7.08261 6.40039 8C6.40039 8.91739 7.05552 9.6 7.80039 9.6C8.54527 9.6 9.20039 8.91739 9.20039 8Z" fill="#FDFDFE"></path></svg>