<svg xmlns="http://www.w3.org/2000/svg" width="15" height="16" viewBox="0 0 15 16" fill="none"><path d="M7.27273 0C4.46875 0 2.18182 2.28693 2.18182 5.09091C2.18182 6.84375 3.0767 8.40057 4.43182 9.31818C1.83807 10.4318 0 13.0057 0 16H1.45455C1.45455 13.8977 2.56534 12.0682 4.22727 11.0455C4.71591 12.2443 5.90625 13.0909 7.27273 13.0909C8.6392 13.0909 9.82955 12.2443 10.3182 11.0455C11.9801 12.0682 13.0909 13.8977 13.0909 16H14.5455C14.5455 13.0057 12.7074 10.4318 10.1136 9.31818C11.4688 8.40057 12.3636 6.84375 12.3636 5.09091C12.3636 2.28693 10.0767 0 7.27273 0ZM7.27273 1.45455C9.28977 1.45455 10.9091 3.07386 10.9091 5.09091C10.9091 7.10796 9.28977 8.72727 7.27273 8.72727C5.25568 8.72727 3.63636 7.10796 3.63636 5.09091C3.63636 3.07386 5.25568 1.45455 7.27273 1.45455ZM7.27273 10.1818C7.86932 10.1818 8.4375 10.267 8.97727 10.4318C8.72443 11.1335 8.06534 11.6364 7.27273 11.6364C6.48011 11.6364 5.82102 11.1335 5.56818 10.4318C6.10796 10.267 6.67614 10.1818 7.27273 10.1818Z" fill="#FDFDFE"></path></svg>