<svg xmlns="http://www.w3.org/2000/svg" width="180" height="143" viewBox="0 0 180 143" fill="none"><path d="M19.9884 118.147L88.6452 142.463C88.7883 142.463 88.9313 142.606 89.0743 142.606C89.2174 142.606 89.2174 142.606 89.3604 142.606C89.5034 142.606 89.6465 142.606 89.9325 142.606H90.0756C90.3617 142.606 90.5047 142.606 90.7908 142.606H90.9338C91.0768 142.606 91.2199 142.463 91.3629 142.463L160.02 118.147C161.736 117.575 162.88 115.858 162.88 114.142V66.0822L177.184 61.076C178.328 60.6469 179.33 59.6457 179.759 58.5014C180.188 57.3571 180.045 55.9267 179.33 54.7825L162.165 26.1754C162.165 26.1754 162.165 26.1754 162.165 26.0324C162.165 25.8894 162.022 25.8894 162.022 25.7463C162.022 25.7463 162.022 25.7463 162.022 25.6033C162.022 25.4603 161.879 25.4603 161.879 25.3172L161.736 25.1742C161.736 25.1742 161.736 25.1742 161.593 25.0312C161.593 25.0312 161.593 25.0312 161.45 25.0312C161.307 25.0312 161.307 24.8881 161.164 24.8881L161.021 24.7451C161.021 24.7451 161.021 24.7451 160.878 24.7451H160.735C160.592 24.7451 160.592 24.602 160.449 24.602C160.306 24.602 160.306 24.602 160.163 24.459C160.163 24.459 160.163 24.459 160.02 24.459L91.3629 0.143033C91.0768 -2.17557e-06 90.7908 0 90.5047 0H90.3616C90.0756 0 89.9325 0 89.6465 0C89.5034 0 89.5034 0 89.3604 0C89.0743 0 88.7883 0.143033 88.5022 0.143033L19.8453 24.459C19.8453 24.459 19.7023 24.459 19.7023 24.602C19.5592 24.7451 19.2732 24.7451 19.1301 24.8881C18.8441 25.0312 18.558 25.3172 18.2719 25.6033L18.1289 25.7463C17.9859 25.8894 17.9859 26.0324 17.8428 26.0324C17.8428 26.0324 17.8428 26.0324 17.6998 26.1754L0.535571 54.7825C-0.0365694 55.7837 -0.179604 57.2141 0.249501 58.3583C0.678607 59.5026 1.67985 60.5039 2.82413 60.933L17.1276 65.9392V114.142C17.1276 116.002 18.2719 117.575 19.9884 118.147ZM154.441 111.138L94.3666 132.451V97.9791C94.3666 95.5475 92.5072 93.688 90.0756 93.688C87.644 93.688 85.7845 95.5475 85.7845 97.9791V132.451L25.7098 111.138V69.086L71.481 85.249C71.9101 85.392 72.4823 85.535 72.9114 85.535C74.3417 85.535 75.7721 84.8198 76.6303 83.3895L90.0756 60.933L103.521 83.3895C104.379 84.8198 105.809 85.535 107.24 85.535C107.669 85.535 108.241 85.392 108.67 85.249L154.441 69.086V111.138ZM94.3666 10.0125L145.859 28.321L94.3666 46.6295V10.0125ZM109.099 76.0947L96.3691 54.9255L156.73 33.4702L169.46 54.6394L109.099 76.0947ZM23.2782 33.4702L83.639 54.9255L70.9089 76.0947L10.548 54.6394L23.2782 33.4702Z" fill="#FD8A2A"></path></svg>