<svg xmlns="http://www.w3.org/2000/svg" width="10" height="16" viewBox="0 0 10 16" fill="none"><path d="M1.8 0C0.813 0 0 0.813 0 1.8V14.2C0 15.187 0.813 16 1.8 16H7.8C8.787 16 9.6 15.187 9.6 14.2V1.8C9.6 0.813 8.787 0 7.8 0H1.8ZM1.8 1.2H7.8C8.1386 1.2 8.4 1.4614 8.4 1.8V14.2C8.4 14.5386 8.1386 14.8 7.8 14.8H1.8C1.4614 14.8 1.2 14.5386 1.2 14.2V1.8C1.2 1.4614 1.4614 1.2 1.8 1.2ZM4.8 2.4C4.64087 2.4 4.48826 2.46321 4.37574 2.57574C4.26321 2.68826 4.2 2.84087 4.2 3C4.2 3.15913 4.26321 3.31174 4.37574 3.42426C4.48826 3.53679 4.64087 3.6 4.8 3.6C4.95913 3.6 5.11174 3.53679 5.22426 3.42426C5.33679 3.31174 5.4 3.15913 5.4 3C5.4 2.84087 5.33679 2.68826 5.22426 2.57574C5.11174 2.46321 4.95913 2.4 4.8 2.4ZM3.8 12.4C3.72049 12.3989 3.64156 12.4136 3.56777 12.4432C3.49399 12.4729 3.42684 12.5169 3.37022 12.5727C3.3136 12.6285 3.26864 12.6951 3.23795 12.7684C3.20726 12.8418 3.19145 12.9205 3.19145 13C3.19145 13.0795 3.20726 13.1582 3.23795 13.2316C3.26864 13.3049 3.3136 13.3715 3.37022 13.4273C3.42684 13.4831 3.49399 13.5271 3.56777 13.5568C3.64156 13.5864 3.72049 13.6011 3.8 13.6H5.8C5.87951 13.6011 5.95845 13.5864 6.03223 13.5568C6.10601 13.5271 6.17316 13.4831 6.22978 13.4273C6.2864 13.3715 6.33137 13.3049 6.36205 13.2316C6.39274 13.1582 6.40855 13.0795 6.40855 13C6.40855 12.9205 6.39274 12.8418 6.36205 12.7684C6.33137 12.6951 6.2864 12.6285 6.22978 12.5727C6.17316 12.5169 6.10601 12.4729 6.03223 12.4432C5.95845 12.4136 5.87951 12.3989 5.8 12.4H3.8Z" fill="#FDFDFE"></path></svg>